<?xml version="1.0" standalone="no"?><!DOCTYPE svg PUBLIC "-//W3C//DTD SVG 1.1//EN" "http://www.w3.org/Graphics/SVG/1.1/DTD/svg11.dtd"><svg t="1514276791673" class="icon" style="" viewBox="0 0 1024 1024" version="1.1" xmlns="http://www.w3.org/2000/svg" p-id="3674" xmlns:xlink="http://www.w3.org/1999/xlink" width="32" height="32"><defs><style type="text/css"></style></defs><path d="M512 51.2c253.44 0 460.8 207.36 460.8 460.8s-207.36 460.8-460.8 460.8-460.8-207.36-460.8-460.8 207.36-460.8 460.8-460.8zM309.76 683.52h87.04v-286.72h-87.04v286.72z m337.92-296.96c-40.96 0-79.36 15.36-104.96 48.64v-40.96H455.68v289.28h87.04V527.36c0-33.28 30.72-64 69.12-64s46.08 33.28 46.08 64v156.16H742.4v-163.84c0-112.64-53.76-133.12-94.72-133.12zM353.28 368.64c23.04 0 43.52-20.48 43.52-43.52S376.32 281.6 353.28 281.6s-43.52 20.48-43.52 43.52 20.48 43.52 43.52 43.52z" fill="#0E76A8" p-id="3675"></path></svg>