<?xml version="1.0" standalone="no"?><!DOCTYPE svg PUBLIC "-//W3C//DTD SVG 1.1//EN" "http://www.w3.org/Graphics/SVG/1.1/DTD/svg11.dtd"><svg t="1516753373165" class="icon" style="" viewBox="0 0 1024 1024" version="1.1" xmlns="http://www.w3.org/2000/svg" p-id="3584" xmlns:xlink="http://www.w3.org/1999/xlink" width="200" height="200"><defs><style type="text/css"></style></defs><path d="M916.064005 910.337114l-17.260214 0-5.17011 0 0-57.984776 0.397701 0.517011 0-129.252757-0.397701-0.556781 0-229.075656-112.151623 0c2.823676-27.123194 5.329191-57.348454 6.641603-88.090725C792.379059 308.655585 806.934908 0 526.95355 0 246.972192 0 254.647817 257.710113 254.647817 257.710113l14.436539 236.234271-122.889545 0 0 415.318937C145.51872 909.939413 145.160789 910.337114 145.160789 910.337114L113.503806 910.337114l0 15.03309L3.420227 925.370204l0 98.629796 72.659935 0 300.94019 0 317.126612 0 281.572161 0 44.860649 0 0-98.629796-105.152089 0.517011L916.064005 910.337114zM528.703433 763.744602c-28.435607 0-51.462483-22.708715-51.462483-50.786391 0-28.037906 23.066646-50.786391 51.462483-50.786391s51.462483 22.748485 51.462483 50.786391C580.205686 740.996116 557.13904 763.744602 528.703433 763.744602zM591.142458 463.241883l0 30.702501-124.718968 0 0-32.969396C375.548858 432.658692 309.649837 347.868883 309.649837 247.688053c0-7.437005 0.397701-14.754699 1.113562-21.953084 60.848221-4.136088 270.95355-23.225726 276.362281-91.192792 20.00435 36.906634 126.110921 129.889079 168.187665 136.013671C745.808296 363.578064 679.233183 439.538916 591.142458 463.241883z" p-id="3585"></path></svg>