<?xml version="1.0" standalone="no"?><!DOCTYPE svg PUBLIC "-//W3C//DTD SVG 1.1//EN" "http://www.w3.org/Graphics/SVG/1.1/DTD/svg11.dtd"><svg t="1516751848355" class="icon" style="" viewBox="0 0 1024 1024" version="1.1" xmlns="http://www.w3.org/2000/svg" p-id="1026" xmlns:xlink="http://www.w3.org/1999/xlink" width="200" height="200"><defs><style type="text/css"></style></defs><path d="M886.125863 954.673052 132.493593 954.673052c-19.987217 0-36.393885-6.42227-49.246611-19.265786-12.843516-12.843516-19.264762-29.259394-19.264762-49.246611L63.98222 132.532479c0-19.983123 6.421246-36.395932 19.264762-49.242518 12.852726-12.845563 29.259394-19.268856 49.246611-19.268856L886.125863 64.021106c19.978007 0 36.392862 6.423293 49.245587 19.268856 12.843516 12.846586 19.265786 29.260417 19.265786 49.242518l0 753.628176c0 19.987217-6.42227 36.403095-19.265786 49.246611C922.518724 948.251805 906.102846 954.673052 886.125863 954.673052zM132.493593 98.277304c-22.837124 0-34.256198 11.419074-34.256198 34.256198l0 753.628176c0 22.837124 11.419074 34.256198 34.256198 34.256198L886.125863 920.417877c22.837124 0 34.256198-11.419074 34.256198-34.256198L920.382061 132.532479c0-22.837124-11.419074-34.256198-34.256198-34.256198L132.493593 98.276281zM284.507776 359.479281c-11.419074 11.419074-24.984021 17.128099-40.686654 17.128099-15.693424 0-29.259394-5.709025-40.677445-17.128099s-17.128099-24.978904-17.128099-40.678468c0-15.70161 5.709025-29.261441 17.128099-40.679491 11.419074-11.419074 24.984021-17.128099 40.677445-17.128099 15.702634 0 29.268604 5.709025 40.686654 17.128099 11.419074 11.419074 17.128099 24.978904 17.128099 40.679491C301.635875 334.500377 295.925826 348.06123 284.507776 359.479281zM284.507776 567.156204c-11.419074 11.419074-24.984021 17.128099-40.686654 17.128099-15.693424 0-29.259394-5.709025-40.677445-17.128099-11.419074-11.419074-17.128099-24.978904-17.128099-40.679491 0-15.700587 5.709025-29.260417 17.128099-40.678468 11.419074-11.419074 24.984021-17.128099 40.677445-17.128099 15.702634 0 29.268604 5.709025 40.686654 17.128099 11.419074 11.419074 17.128099 24.978904 17.128099 40.678468C301.635875 542.178323 295.925826 555.738154 284.507776 567.156204zM284.507776 774.833127c-11.419074 11.419074-24.984021 17.128099-40.686654 17.128099-15.693424 0-29.259394-5.709025-40.677445-17.128099-11.419074-11.419074-17.128099-24.977881-17.128099-40.678468 0-15.700587 5.709025-29.260417 17.128099-40.678468 11.419074-11.419074 24.984021-17.128099 40.677445-17.128099 15.702634 0 29.268604 5.709025 40.686654 17.128099 11.419074 11.419074 17.128099 24.978904 17.128099 40.678468C301.635875 749.855246 295.925826 763.414053 284.507776 774.833127zM269.517363 295.249421c-7.134491-7.136537-15.346523-10.704806-24.618701-10.704806-9.281387 0-17.48421 3.568269-24.62791 10.704806-7.134491 7.137561-10.705829 15.343453-10.705829 24.622794 0 9.277294 3.571339 17.128099 10.705829 23.550369 7.143701 6.42227 15.346523 9.634428 24.62791 9.634428 9.272177 0 17.128099-3.212158 23.550369-9.634428 6.42227-6.42227 9.628288-14.273075 9.628288-23.550369C278.076296 310.592874 275.226389 302.385958 269.517363 295.249421zM269.517363 500.784564c-7.134491-5.709025-15.346523-8.56405-24.618701-8.56405-9.281387 0-17.48421 3.569292-24.62791 10.704806-7.134491 7.137561-10.705829 14.986319-10.705829 23.550369s3.571339 16.414855 10.705829 23.551392c7.143701 7.136537 15.346523 10.704806 24.62791 10.704806 9.272177 0 17.128099-3.568269 23.550369-10.704806 6.42227-7.137561 9.628288-14.987343 9.628288-23.551392S275.226389 509.348614 269.517363 500.784564zM269.517363 708.46251c-7.134491-5.709025-15.346523-8.56405-24.618701-8.56405-9.281387 0-17.48421 3.212158-24.62791 9.634428-7.134491 6.42227-10.705829 14.273075-10.705829 23.550369 0 9.278317 3.571339 17.485233 10.705829 24.62177 7.143701 7.137561 15.346523 10.704806 24.62791 10.704806 9.272177 0 17.128099-3.568269 23.550369-10.704806 6.42227-7.136537 9.628288-15.343453 9.628288-24.62177C278.076296 723.805964 275.226389 715.599048 269.517363 708.46251zM819.751153 329.504596 382.991788 329.504596c-8.568143 0-12.843516-3.568269-12.843516-10.704806 0-7.137561 4.275373-10.704806 12.843516-10.704806l436.759365 0c7.143701 0 10.705829 3.568269 10.705829 10.704806C830.456982 325.93735 826.89383 329.504596 819.751153 329.504596zM819.751153 537.182542 382.991788 537.182542c-8.568143 0-12.843516-3.568269-12.843516-10.704806 0-7.136537 4.275373-10.704806 12.843516-10.704806l436.759365 0c7.143701 0 10.705829 3.568269 10.705829 10.704806C830.456982 533.614274 826.89383 537.182542 819.751153 537.182542zM819.751153 744.859465 382.991788 744.859465c-8.568143 0-12.843516-3.568269-12.843516-10.704806 0-7.136537 4.275373-10.704806 12.843516-10.704806l436.759365 0c7.143701 0 10.705829 3.569292 10.705829 10.704806C830.456982 741.291197 826.89383 744.859465 819.751153 744.859465z" p-id="1027"></path></svg>