<?xml version="1.0" standalone="no"?><!DOCTYPE svg PUBLIC "-//W3C//DTD SVG 1.1//EN" "http://www.w3.org/Graphics/SVG/1.1/DTD/svg11.dtd"><svg t="1514276857806" class="icon" style="" viewBox="0 0 1024 1024" version="1.1" xmlns="http://www.w3.org/2000/svg" p-id="6164" xmlns:xlink="http://www.w3.org/1999/xlink" width="32" height="32"><defs><style type="text/css"></style></defs><path d="M357.7620344826497 477.4691120201086C398.0480700283031 558.0411836284791 465.95881637152087 623.6498707385664 546.5308879798914 666.2379655173502l63.30662787695697-63.30662787695697c8.05720731595629-8.05720731595629 19.567502964544055-11.510296165651841 28.77573989706552-5.7551480828259205 31.077799130195896 11.510296165651841 65.60868711008733 17.265443731413683 102.44163380604508 17.265443731413683 17.265443731413683 0 28.77573989706552 11.510296165651841 28.77573989706552 28.77573989706552l0 96.68648572321918c0 17.265443731413683-11.510296165651841 28.77573989706552-28.77573989706552 28.77573989706552C471.7139644543467 768.6795993233952 255.32040067660466 552.2860355456532 255.32040067660466 284.09614057367025c0-17.265443731413683 11.510296165651841-28.77573989706552 28.77573989706552-28.77573989706552l100.1395745729147 0c17.265443731413683 0 28.77573989706552 11.510296165651841 28.77573989706552 28.77573989706552 0 34.53088797989144 5.7551480828259205 69.06177544271881 17.265443731413683 102.44163380604508 2.302059233130368 8.05720731595629 0 19.567502964544055-5.7551480828259205 28.77573989706552L357.7620344826497 477.4691120201086z" fill="#03A9F4" p-id="6165"></path></svg>