<?xml version="1.0" standalone="no"?><!DOCTYPE svg PUBLIC "-//W3C//DTD SVG 1.1//EN" "http://www.w3.org/Graphics/SVG/1.1/DTD/svg11.dtd"><svg t="1514277480201" class="icon" style="" viewBox="0 0 1024 1024" version="1.1" xmlns="http://www.w3.org/2000/svg" p-id="7423" xmlns:xlink="http://www.w3.org/1999/xlink" width="32" height="32"><defs><style type="text/css"></style></defs><path d="M512 0C229.239467 0 0 229.239467 0 512c0 282.760533 229.239467 512 512 512 282.760533 0 512-229.239467 512-512 0-282.760533-229.239467-512-512-512z m47.104 667.0336c-37.853867 0-73.454933-20.8896-85.674667-44.612267 0 0-20.343467 82.466133-24.6784 98.372267-7.2704 26.897067-21.265067 53.76-34.269866 75.025067-18.5344 24.234667-39.867733 6.2464-42.427734-15.803734-0.853333-24.576 0-53.6576 6.144-80.145066l45.056-195.072s-11.195733-22.869333-11.195733-56.661334c0-53.0432 30.139733-92.672 67.652267-92.672 31.880533 0 47.274667 24.4736 47.274666 53.76 0 32.733867-20.445867 81.681067-30.958933 127.010134-8.772267 37.9904 18.670933 68.949333 55.364267 68.949333 66.423467 0 111.172267-87.1424 111.172266-190.327467 0-78.472533-51.746133-137.181867-145.92-137.181866-106.359467 0-172.612267 80.9984-172.612266 171.451733 0 31.163733 8.977067 53.179733 23.108266 70.178133 6.485333 7.850667 7.406933 10.990933 5.051734 19.968-1.706667 6.621867-5.563733 22.4256-7.133867 28.706134-2.321067 9.079467-9.557333 12.288-17.544533 8.942933-49.015467-20.411733-71.816533-75.195733-71.816534-136.738133 0-101.717333 84.002133-223.6416 250.606934-223.6416 133.8368 0 221.969067 98.884267 221.969066 205.073066 0.034133 140.526933-76.458667 245.418667-189.166933 245.418667z" fill="#CA1F28" p-id="7424"></path></svg>