<?xml version="1.0" standalone="no"?><!DOCTYPE svg PUBLIC "-//W3C//DTD SVG 1.1//EN" "http://www.w3.org/Graphics/SVG/1.1/DTD/svg11.dtd"><svg t="1514276843532" class="icon" style="" viewBox="0 0 1024 1024" version="1.1" xmlns="http://www.w3.org/2000/svg" p-id="5472" xmlns:xlink="http://www.w3.org/1999/xlink" width="32" height="32"><defs><style type="text/css"></style></defs><path d="M883.2 896l-89.6-44.8c-12.8 6.4-25.6 6.4-38.4 6.4-19.2 6.4-38.4 6.4-51.2 6.4-25.6 0-57.6-6.4-83.2-12.8h-6.4c-51.2-12.8-102.4-38.4-140.8-70.4-25.6-19.2-44.8-44.8-64-76.8h-19.2c-19.2 0-44.8 0-64-6.4-19.2 0-32-6.4-44.8-12.8l-115.2 51.2-70.4 32 19.2-64 25.6-83.2c-32-25.6-64-57.6-83.2-96C25.6 486.4 12.8 435.2 12.8 384 12.8 294.4 57.6 211.2 128 153.6 192 96 288 64 390.4 64c102.4 0 192 32 262.4 89.6 51.2 44.8 89.6 96 102.4 160 64 12.8 121.6 38.4 166.4 76.8 64 51.2 96 121.6 96 198.4 0 44.8-12.8 83.2-32 121.6-19.2 32-38.4 57.6-70.4 83.2l19.2 64 25.6 76.8-76.8-38.4z" fill="#6CB02F" p-id="5473"></path><path d="M275.2 243.2c-25.6 0-44.8 19.2-44.8 44.8 0 25.6 19.2 44.8 44.8 44.8 25.6 0 44.8-19.2 44.8-44.8 0-25.6-19.2-44.8-44.8-44.8zM499.2 243.2c-25.6 0-44.8 19.2-44.8 44.8 0 25.6 19.2 44.8 44.8 44.8 25.6 0 44.8-19.2 44.8-44.8 0-25.6-19.2-44.8-44.8-44.8zM608 480c-19.2 0-32 19.2-32 38.4s12.8 32 32 32 38.4-12.8 38.4-32-19.2-38.4-38.4-38.4zM793.6 480c-19.2 0-32 19.2-32 38.4s12.8 32 32 32 38.4-12.8 38.4-32c-6.4-19.2-19.2-38.4-38.4-38.4z" fill="#6CB02F" p-id="5474"></path><path d="M390.4 672c-12.8-25.6-12.8-57.6-12.8-83.2 0-76.8 38.4-147.2 96-198.4 57.6-51.2 140.8-76.8 224-76.8h19.2C678.4 192 544 102.4 390.4 102.4 204.8 102.4 51.2 230.4 51.2 390.4c0 89.6 51.2 172.8 128 224l-32 102.4 128-57.6c32 6.4 70.4 12.8 115.2 12.8z" fill="#FFFFFF" p-id="5475"></path><path d="M435.2 691.2c6.4 0 6.4 0 0 0l6.4 6.4c0 6.4 0 6.4 6.4 6.4 32 51.2 96 96 160 115.2 6.4 0 12.8 6.4 19.2 6.4 25.6 6.4 44.8 6.4 70.4 6.4 32 0 64-6.4 96-12.8l102.4 51.2-25.6-89.6c64-44.8 108.8-115.2 108.8-192 0-115.2-96-211.2-217.6-236.8h-6.4-6.4-6.4-6.4-6.4-44.8c-160 0-281.6 108.8-281.6 243.2 0 32 6.4 57.6 19.2 83.2v12.8c12.8-6.4 12.8-6.4 12.8 0z" fill="#FFFFFF" p-id="5476"></path><path d="M608 512m-38.4 0a38.4 38.4 0 1 0 76.8 0 38.4 38.4 0 1 0-76.8 0Z" fill="#6CB02F" p-id="5477"></path><path d="M793.6 512m-38.4 0a38.4 38.4 0 1 0 76.8 0 38.4 38.4 0 1 0-76.8 0Z" fill="#6CB02F" p-id="5478"></path><path d="M275.2 288m-44.8 0a44.8 44.8 0 1 0 89.6 0 44.8 44.8 0 1 0-89.6 0Z" fill="#6CB02F" p-id="5479"></path><path d="M499.2 288m-44.8 0a44.8 44.8 0 1 0 89.6 0 44.8 44.8 0 1 0-89.6 0Z" fill="#6CB02F" p-id="5480"></path></svg>